HIERARCHY
ROOT Hips
{
	OFFSET	0.00	0.00	0.00
	CHANNELS 6 Xposition Yposition Zposition Zrotation Xrotation Yrotation
	JOINT Chest
	{
		OFFSET	0.00	6.27	0.00
		CHANNELS 3 Zrotation Xrotation Yrotation
		JOINT Neck
		{
			OFFSET	0.00	14.30	0.00
			CHANNELS 3 Zrotation Xrotation Yrotation
			JOINT Head
			{
				OFFSET	0.00	2.64	0.00
				CHANNELS 3 Zrotation Xrotation Yrotation
				End Site
				{
					OFFSET	0.00	4.50	0.00
				}
			}
		}
		JOINT LeftCollar
		{
			OFFSET	1.12	11.36	1.87
			CHANNELS 3 Zrotation Xrotation Yrotation
			JOINT LeftUpArm
			{
				OFFSET	4.57	2.02	-1.82
				CHANNELS 3 Zrotation Xrotation Yrotation
				JOINT LeftLowArm
				{
					OFFSET	0.22	-10.35	-0.06
					CHANNELS 3 Zrotation Xrotation Yrotation
					JOINT LeftHand
					{
						OFFSET	0.09	-10.35	2.18
						CHANNELS 3 Zrotation Xrotation Yrotation
						End Site
						{
							OFFSET	0.13	-6.69	1.71
						}
					}
				}
			}
		}
		JOINT RightCollar
		{
			OFFSET	-1.12	11.36	1.87
			CHANNELS 3 Zrotation Xrotation Yrotation
			JOINT RightUpArm
			{
				OFFSET	-4.70	2.03	-1.82
				CHANNELS 3 Zrotation Xrotation Yrotation
				JOINT RightLowArm
				{
					OFFSET	-0.26	-10.43	-0.06
					CHANNELS 3 Zrotation Xrotation Yrotation
					JOINT RightHand
					{
						OFFSET	0.00	-10.26	2.18
						CHANNELS 3 Zrotation Xrotation Yrotation
						End Site
						{
							OFFSET	-0.14	-6.67	1.71
						}
					}
				}
			}
		}
	}
	JOINT LeftUpLeg
	{
		OFFSET	3.91	0.00	0.00
		CHANNELS 3 Zrotation Xrotation Yrotation
		JOINT LeftLowLeg
		{
			OFFSET	-0.44	-17.57	1.70
			CHANNELS 3 Zrotation Xrotation Yrotation
			JOINT LeftFoot
			{
				OFFSET	-0.04	-17.20	-1.48
				CHANNELS 3 Zrotation Xrotation Yrotation
				End Site
				{
					OFFSET	0.00	-3.93	5.23
				}
			}
		}
	}
	JOINT RightUpLeg
	{
		OFFSET	-3.91	0.00	0.00
		CHANNELS 3 Zrotation Xrotation Yrotation
		JOINT RightLowLeg
		{
			OFFSET	0.44	-17.62	1.70
			CHANNELS 3 Zrotation Xrotation Yrotation
			JOINT RightFoot
			{
				OFFSET	0.00	-17.14	-1.48
				CHANNELS 3 Zrotation Xrotation Yrotation
				End Site
				{
					OFFSET	0.00	-4.04	5.23
				}
			}
		}
	}
}
MOTION
Frames: 20
Frame Time: 0.04166667
220.12	5.33	3.11	-13.71	-4.20	79.05	-0.55	13.80	-2.15	-7.00	7.95	13.53	-9.01	-7.43	-3.81	-16.46	0.61	-5.27	20.42	18.15	-91.13	-3.94	-14.80	9.57	-19.48	3.16	-4.06	4.90	7.84	3.46	-21.53	-5.42	38.61	-3.35	1.64	2.47	-7.28	2.50	-1.56	23.09	-53.14	11.34	-1.13	71.85	-5.73	-3.14	2.77	0.28	13.60	-1.92	-27.56	2.08	-9.17	7.41	-10.72	-2.05	5.79
220.87	5.81	3.26	-15.64	-5.06	83.61	0.20	13.32	-3.02	-7.40	7.11	12.19	-7.77	-7.84	-3.34	-16.74	0.49	-4.86	18.50	17.95	-90.33	-3.54	-17.52	9.78	-18.63	3.10	-3.89	4.68	8.84	2.85	-21.04	-6.03	40.54	-2.70	1.43	2.02	-5.96	2.46	-1.28	19.72	-50.29	8.10	-2.30	54.57	-6.01	-4.14	-1.08	0.17	14.33	-3.28	-32.10	2.14	-9.17	8.02	-9.81	-2.02	5.73
221.55	6.22	3.38	-16.19	-4.96	87.20	-1.65	14.62	-2.30	-6.36	6.10	10.50	-6.91	-8.40	-3.03	-16.42	2.30	-4.41	17.92	15.59	-89.15	-3.39	-19.84	9.97	-16.98	2.99	-3.56	6.04	9.37	1.73	-21.02	-6.90	43.51	-2.10	0.70	1.57	-3.71	2.42	-0.80	15.27	-43.06	2.90	-2.49	32.49	-6.33	-6.52	-3.59	0.08	13.93	-3.21	-36.85	2.29	-9.15	9.70	-8.62	-1.99	5.64
222.42	6.33	3.38	-17.66	-5.58	90.43	-1.18	13.97	-2.78	-6.69	6.09	10.01	-6.50	-8.66	-2.87	-16.32	1.29	-4.82	15.96	17.12	-87.12	-3.37	-21.20	10.27	-16.22	2.95	-3.40	5.11	8.40	2.54	-20.39	-5.12	45.18	-1.59	0.05	1.26	-2.93	2.41	-0.63	13.39	-33.92	-6.25	-1.76	5.63	-1.53	-8.26	-2.25	0.34	14.27	-3.87	-41.59	2.48	-9.12	11.92	-7.43	-2.83	5.44
223.32	6.18	3.27	-18.29	-6.06	92.53	-0.79	14.20	-2.65	-6.96	5.87	9.90	-6.33	-8.62	-2.80	-16.68	1.35	-4.83	14.97	17.28	-85.51	-3.17	-22.25	10.17	-15.57	2.91	-3.27	4.96	8.82	2.76	-20.67	-5.15	46.21	-1.80	0.19	1.32	-1.76	2.40	-0.38	13.45	-28.00	-6.73	-1.29	-9.21	0.28	-5.28	-3.82	0.01	14.64	-3.49	-45.60	2.66	-9.08	13.89	-6.50	-4.72	5.17
224.22	5.72	3.12	-18.97	-7.63	93.35	1.17	13.17	-2.16	-7.66	6.64	10.16	-6.26	-8.76	-2.78	-16.76	-0.12	-5.52	13.43	19.75	-83.80	-3.10	-23.37	10.43	-15.46	2.90	-3.25	3.70	7.58	4.38	-20.58	-2.47	47.09	-1.58	0.20	1.14	-1.33	2.40	-0.28	13.37	-27.67	0.59	-1.46	-9.21	-1.53	-4.05	-7.73	-0.30	16.16	-2.89	-47.44	2.74	-9.06	14.80	-5.60	-7.31	4.89
225.15	5.18	2.87	-19.32	-8.88	93.05	2.65	12.33	-0.99	-8.11	7.48	9.75	-5.80	-9.07	-2.60	-16.51	-1.63	-6.37	12.30	22.03	-81.91	-3.35	-24.04	11.16	-15.35	2.90	-3.23	2.53	5.62	6.54	-20.15	1.03	46.96	-1.50	0.66	1.01	-1.04	2.40	-0.22	13.90	-26.65	9.69	-1.91	-9.19	-6.48	-7.09	-6.19	-0.21	17.12	-1.52	-46.87	2.71	-9.07	14.49	-4.47	-10.16	4.69
225.82	4.83	2.64	-20.94	-10.09	93.26	3.71	10.60	-0.36	-7.99	8.06	7.75	-4.63	-9.82	-2.13	-15.77	-2.87	-7.32	12.02	23.12	-80.01	-4.02	-23.66	12.25	-15.06	2.88	-3.16	2.05	3.18	8.65	-19.27	4.58	46.29	-1.77	1.44	1.09	-0.93	2.40	-0.20	17.71	-35.25	21.07	-4.14	5.72	-15.81	-5.58	-6.13	-0.20	17.88	-1.76	-45.74	2.59	-9.10	13.04	-3.46	-11.83	4.66
226.73	4.89	2.37	-21.83	-9.42	94.56	1.87	11.19	0.22	-6.56	7.34	3.92	-3.25	-10.46	-1.53	-14.61	-1.38	-7.54	14.27	19.38	-79.90	-4.54	-22.15	12.39	-14.88	2.87	-3.13	3.75	3.28	8.45	-19.33	3.71	45.18	-2.30	2.48	1.28	-0.79	2.40	-0.17	15.93	-36.46	19.21	-4.37	6.22	-17.23	-5.42	-1.27	0.25	16.53	-1.52	-45.33	2.45	-9.13	11.41	-2.31	-11.62	4.78
227.76	5.09	2.00	-23.27	-9.02	95.80	1.51	9.29	0.05	-6.35	8.40	0.29	-1.98	-10.41	-0.93	-13.13	-3.94	-8.98	14.21	20.76	-78.72	-5.71	-19.16	12.70	-14.60	2.86	-3.07	3.17	-0.52	10.78	-17.40	8.44	43.60	-2.14	2.78	1.40	-4.71	2.44	-1.01	13.41	-36.67	14.36	-3.79	4.24	-14.98	-6.56	2.54	0.77	15.14	-1.72	-44.64	2.29	-9.16	9.67	-0.94	-10.61	4.93
228.73	5.30	1.63	-23.04	-8.74	96.94	1.85	10.01	-0.57	-6.40	7.91	-2.78	-1.12	-9.54	-0.51	-13.31	-2.60	-7.99	16.83	16.19	-79.41	-7.07	-15.73	12.82	-14.59	2.85	-3.07	3.73	1.39	10.03	-18.44	5.54	44.47	-1.87	2.54	1.24	-4.80	2.44	-1.03	11.31	-34.35	10.42	-3.20	1.19	-12.69	-8.32	5.84	1.50	13.74	-0.33	-42.25	2.03	-9.19	6.73	0.21	-7.90	5.01
229.67	5.37	1.22	-22.52	-8.85	96.68	3.24	9.17	-0.84	-6.99	8.29	-4.33	-0.61	-8.41	-0.26	-13.62	-3.17	-7.79	18.44	14.86	-80.47	-8.05	-12.34	12.38	-14.92	2.87	-3.14	3.08	1.36	10.30	-18.44	5.82	46.80	-1.93	2.08	1.33	-5.40	2.45	-1.16	11.45	-34.48	9.27	-3.27	4.92	-11.21	-7.28	4.83	1.16	12.21	1.60	-35.49	1.63	-9.22	2.20	0.54	-4.00	4.98
230.31	5.39	0.77	-20.82	-7.76	95.63	2.89	8.78	-0.19	-6.49	8.68	-5.19	-0.70	-7.89	-0.30	-13.52	-3.26	-8.22	20.60	13.68	-83.03	-8.18	-9.24	11.36	-16.19	2.95	-3.40	3.33	0.98	10.03	-18.19	6.68	45.92	-1.95	2.31	1.30	-5.16	2.45	-1.11	10.33	-32.99	7.65	-3.09	8.81	-8.57	-4.99	2.88	0.57	9.55	4.56	-27.75	1.22	-9.20	-2.48	-1.13	0.58	5.13
231.28	5.29	0.32	-18.16	-6.45	94.77	2.78	8.63	0.19	-5.78	8.89	-5.34	-1.33	-7.66	-0.57	-13.64	-2.96	-8.60	23.33	11.93	-88.58	-7.63	-6.70	10.35	-19.63	3.17	-4.09	3.81	1.12	9.47	-18.22	7.36	44.70	-1.70	2.55	1.08	-4.49	2.43	-0.96	8.86	-30.91	6.55	-2.91	13.40	-6.65	-3.23	0.36	0.17	3.96	0.39	-19.26	0.97	7.29	-7.42	-4.79	-1.77	5.37
232.20	5.07	-0.13	-14.60	-4.55	94.38	2.74	9.03	-0.41	-5.33	8.62	-4.59	-2.05	-7.29	-0.86	-14.04	-1.86	-8.33	26.52	8.52	-97.87	-6.25	-5.17	8.98	-22.33	3.38	-4.63	4.36	2.45	8.54	-18.84	6.74	44.11	-1.61	2.96	0.95	-3.76	2.42	-0.81	6.88	-27.51	8.07	-3.04	17.23	-7.47	-1.29	-2.23	-0.09	-1.49	-6.64	-15.22	0.74	29.93	-9.07	-7.92	-4.30	5.27
232.97	4.67	-0.55	-10.20	-2.33	93.45	2.68	9.29	-1.10	-5.11	8.71	-3.22	-2.84	-6.81	-1.16	-14.25	-1.33	-8.07	29.28	5.89	-105.29	-4.99	-3.57	7.42	-22.30	3.37	-4.63	4.49	3.09	8.25	-18.99	7.29	43.76	-1.91	3.61	0.99	-2.31	2.41	-0.50	5.34	-23.65	11.83	-3.21	22.19	-9.69	0.87	-5.33	-0.17	-5.38	-10.89	-12.25	-0.05	47.36	-11.17	-10.77	-4.22	5.38
233.77	4.11	-0.98	-5.83	-0.98	91.45	4.40	7.97	-1.84	-5.90	9.96	-1.02	-3.75	-6.25	-1.50	-14.42	-3.75	-8.51	30.61	7.17	-109.99	-4.32	-2.23	6.60	-22.98	3.43	-4.76	3.01	0.89	9.91	-18.16	11.83	43.14	-2.15	4.08	1.07	-1.87	2.40	-0.40	5.08	-20.31	16.14	-3.10	28.44	-11.50	2.95	-9.29	0.03	-7.68	-15.55	-9.52	-2.07	63.36	-12.46	-14.10	-2.09	6.04
234.39	3.61	-1.39	-1.07	0.32	88.38	5.79	7.44	-2.17	-6.31	10.96	1.40	-4.60	-5.68	-1.80	-14.60	-5.65	-8.64	32.28	7.50	-108.67	-4.56	-0.82	6.29	-22.47	3.39	-4.66	2.18	-0.81	11.24	-17.69	15.14	41.32	-3.42	5.14	1.56	-1.36	2.40	-0.29	4.19	-15.80	18.23	-2.87	32.84	-10.65	3.58	-12.68	0.29	-9.33	-20.02	-6.81	-8.36	76.91	-9.64	-17.76	0.87	7.28
235.34	3.18	-1.78	3.42	1.35	84.60	6.42	6.84	-2.15	-5.79	12.13	4.00	-5.15	-5.25	-1.98	-13.99	-7.28	-9.25	33.68	8.04	-100.74	-4.86	0.97	5.73	-20.39	3.23	-4.25	2.06	-2.99	12.15	-17.55	18.25	39.61	-4.59	5.98	1.79	-1.15	2.40	-0.25	2.00	-8.87	19.72	-2.89	32.29	-10.59	8.36	-18.61	1.75	-10.24	-24.47	-4.30	-53.01	86.56	31.92	-21.65	2.64	8.52
236.10	2.99	-2.11	8.99	3.47	81.10	2.90	10.38	-1.69	-2.01	10.66	4.96	-5.98	-4.99	-2.28	-12.66	-2.13	-8.34	37.77	-0.49	-86.55	-4.04	2.88	4.52	-18.51	3.09	-3.87	6.21	1.03	8.19	-21.30	11.20	39.89	-5.20	6.36	1.71	-0.24	2.40	-0.05	-1.84	-2.32	20.99	-2.65	31.77	-8.46	8.31	-19.55	1.88	-12.00	-27.82	-2.18	-150.25	83.16	127.01	-24.55	4.35	9.82
